PathFileType	4	(X/Y/Z)	C:\Users\Basilio\Documents\Thesis Gigler\squatting_fais\c3dfiles\077\SLS_back_pre4\markers_experimental.trc
DataRate	CameraRate	NumFrames	NumMarkers	Units	OrigDataRate	OrigDataStartFrame	OrigNumFrames
200.000000	200.000000	4	60	mm	200.000000	876	1402
Frame#	Time	FHD			LBHD			RBHD			C7			T10			CLAV			LSHO			LUUPA			LMUPA			LDUPA			LLEP			LMEP			LRAD			LUL			LRFIN			RSHO			RUPA1			RMUPA			RDUPA			RLEP			RMEP			RRAD			RUL			RUFIN			LASI			RASI			USACR			LSACR			RSACR			LTHI1			LTHI2			LTHI3			LTHI4			LLFC			LMFC			LTIB1			LTIB2			LTIB3			LTIB4			LLMAL			LHEE			LMT1			LMT2			LMT5			RTHI			RTHI2			RTHI3			RTHI4			RLFC			RMFC			RTIB1			RTIB2			RTIB3			RTIB4			RLMAL			RMMAL			RHEE			RMT1			RMT2			RMT5			
		X1	Y1	Z1	X2	Y2	Z2	X3	Y3	Z3	X4	Y4	Z4	X5	Y5	Z5	X6	Y6	Z6	X7	Y7	Z7	X8	Y8	Z8	X9	Y9	Z9	X10	Y10	Z10	X11	Y11	Z11	X12	Y12	Z12	X13	Y13	Z13	X14	Y14	Z14	X15	Y15	Z15	X16	Y16	Z16	X17	Y17	Z17	X18	Y18	Z18	X19	Y19	Z19	X20	Y20	Z20	X21	Y21	Z21	X22	Y22	Z22	X23	Y23	Z23	X24	Y24	Z24	X25	Y25	Z25	X26	Y26	Z26	X27	Y27	Z27	X28	Y28	Z28	X29	Y29	Z29	X30	Y30	Z30	X31	Y31	Z31	X32	Y32	Z32	X33	Y33	Z33	X34	Y34	Z34	X35	Y35	Z35	X36	Y36	Z36	X37	Y37	Z37	X38	Y38	Z38	X39	Y39	Z39	X40	Y40	Z40	X41	Y41	Z41	X42	Y42	Z42	X43	Y43	Z43	X44	Y44	Z44	X45	Y45	Z45	X46	Y46	Z46	X47	Y47	Z47	X48	Y48	Z48	X49	Y49	Z49	X50	Y50	Z50	X51	Y51	Z51	X52	Y52	Z52	X53	Y53	Z53	X54	Y54	Z54	X55	Y55	Z55	X56	Y56	Z56	X57	Y57	Z57	X58	Y58	Z58	X59	Y59	Z59	X60	Y60	Z60	

877	4.38	22.78910827636719	1603.134155273438	-1061.662353515625	-128.6641235351563	1503.669067382813	-1122.02099609375	-125.4735260009766	1500.621948242188	-977.2368774414065	-185.1240692138672	1394.858276367188	-1056.913696289063	-344.8741149902344	1129.290893554688	-1017.713012695313	-45.19011306762696	1292.836669921875	-1054.87548828125	-79.38558197021486	1361.403564453125	-1210.228881835938	53.66645431518556	1319.167602539063	-1345.698608398438	89.30352783203126	1341.740478515625	-1318.793212890625	119.1479110717774	1314.565673828125	-1364.204345703125	184.6650695800782	1319.833984375	-1369.574096679688	190.8607482910157	1246.957641601563	-1350.543090820313	491.7080383300782	1331.3251953125	-1293.266845703125	486.6210937500001	1339.405151367188	-1373.044921875	588.5463867187501	1353.885620117188	-1313.551513671875	-63.7910842895508	1370.804443359375	-913.0276489257815	70.84277343750001	1337.12646484375	-780.0659790039065	102.0083618164063	1357.003295898438	-812.005310058594	140.0723571777344	1332.711059570313	-770.9859619140627	207.2487030029297	1332.42041015625	-775.636901855469	206.7986602783204	1255.620971679688	-792.6292724609377	493.0698242187501	1327.338134765625	-874.8813476562502	504.922821044922	1339.397827148438	-795.1920166015627	586.7559814453126	1349.248657226563	-876.7363891601565	-285.3948669433594	896.8886718750002	-1168.864868164063	-303.9498291015626	856.6661376953127	-899.5655517578127	-411.6560668945314	1055.492919921875	-1015.600219726563	-434.9438476562501	1043.612670898438	-1048.795654296875	-438.7814025878907	1028.493286132813	-994.8178710937502	-281.4643249511719	751.1884155273439	-1240.295532226563	-214.8575134277344	699.1136474609376	-1232.32373046875	-175.0557098388672	724.9183349609376	-1220.172607421875	-214.8055725097657	639.5343627929689	-1222.39501953125	-128.5204162597657	518.8622436523439	-1176.468994140625	-131.6393737792969	513.7733764648439	-1047.304321289063	-170.1614379882813	310.3382568359376	-1076.910522460938	-212.1284179687501	269.2953796386719	-1145.472290039063	-187.7133026123047	261.0820617675782	-1105.320678710938	-229.2042236328126	200.2288208007813	-1065.608276367188	-329.0173645019532	106.4902725219727	-1104.621704101563	-395.9471435546876	83.72578430175783	-1047.983276367188	-187.0901336669922	54.28296279907228	-1021.173767089844	-181.0272979736328	56.4664764404297	-1063.798095703125	-302.6820678710938	125.5587921142578	-1018.297546386719	-470.823944091797	566.6122436523439	-890.9588623046877	-442.7020568847657	502.6477661132814	-888.3150634765627	-408.9872436523439	496.7770996093751	-888.370544433594	-482.6450195312501	439.359588623047	-923.570007324219	-503.3972167968751	411.5174560546876	-940.9533691406252	-463.025360107422	392.3942871093751	-1062.4365234375	-615.4357299804689	398.4707031250001	-1015.219482421875	-678.7005615234376	483.470672607422	-999.3558349609377	-685.6248779296876	446.9260559082032	-1029.68798828125	-706.7031250000001	466.0390930175782	-1082.037475585938	-857.212341308594	589.2542724609376	-1094.386108398438	-819.5822753906252	570.3211669921876	-1176.123046875	-828.4414672851565	664.7933959960939	-1131.35986328125	-944.1978149414065	493.1219787597657	-1225.405883789063	-966.7161254882815	492.5327148437501	-1192.218505859375	-1000.26025390625	518.5255126953126	-1158.5625	
878	4.385	21.20545387268067	1606.047241210938	-1062.325805664063	-129.400390625	1506.27001953125	-1122.046752929688	-126.1770477294922	1503.107543945313	-977.3825683593752	-185.7760620117188	1397.1923828125	-1057.017822265625	-344.7266845703126	1131.587158203125	-1017.6005859375	-45.71610260009766	1295.500854492188	-1055.081665039063	-80.02859497070314	1363.78515625	-1210.417724609375	53.4254608154297	1321.39892578125	-1345.7216796875	88.24237060546876	1344.105102539063	-1318.829345703125	118.598503112793	1316.7451171875	-1364.078125	184.6434020996094	1321.567749023438	-1369.1728515625	189.61669921875	1249.15283203125	-1350.57861328125	491.4958801269532	1333.341796875	-1292.65234375	486.1654663085939	1341.215087890625	-1372.6416015625	588.1655273437501	1355.213623046875	-1313.10400390625	-64.32128143310548	1373.30810546875	-913.013854980469	70.39267730712892	1339.70947265625	-780.0665283203127	101.6360015869141	1359.757080078125	-812.1531372070315	139.7337951660157	1335.516845703125	-770.9334106445315	206.873764038086	1335.148071289063	-775.608581542969	206.475326538086	1258.232543945313	-792.6921386718752	492.5763549804689	1330.2802734375	-874.5991821289065	504.3992004394532	1342.312255859375	-795.120300292969	586.4027709960939	1352.158325195313	-876.5022583007815	-284.6943969726563	898.9892578125002	-1168.382568359375	-303.2922058105469	858.9676513671877	-899.0567626953127	-411.7173156738282	1057.002319335938	-1015.418029785156	-434.8312377929689	1045.444213867188	-1048.583984375	-438.7571411132814	1030.293823242188	-994.5759887695315	-282.1750793457032	752.4682617187501	-1240.117431640625	-215.2865295410157	700.1693115234376	-1232.153564453125	-175.457504272461	725.5968017578126	-1220.087036132813	-215.8634033203126	640.8142089843751	-1222.372436523438	-129.6071472167969	519.5704956054689	-1176.396728515625	-132.6946105957032	514.3001708984376	-1047.0556640625	-170.8456115722657	310.8058166503907	-1076.83056640625	-213.0907745361329	269.6673583984376	-1145.166870117188	-188.384033203125	261.8200683593751	-1105.276977539063	-229.4008178710938	200.3034210205079	-1065.574462890625	-329.0373840332032	106.5954360961914	-1104.535278320313	-395.9330444335939	83.76198577880861	-1047.907836914063	-187.1170806884766	54.15341949462892	-1021.192993164063	-181.1217346191407	56.53705215454103	-1063.768676757813	-302.7300720214844	125.6092071533203	-1018.140747070313	-469.9293518066407	568.4121704101564	-890.4788818359377	-441.623260498047	504.4783020019532	-887.740661621094	-407.7991333007814	498.8204345703126	-887.541687011719	-481.4825134277345	441.2635803222657	-923.021667480469	-502.3624267578126	413.4213256835939	-940.2888793945315	-462.7488403320314	395.3999938964845	-1062.102172851563	-614.2991943359376	400.102752685547	-1014.555847167969	-677.5653076171876	485.1872558593751	-998.895446777344	-684.6583251953126	448.3078918457032	-1029.155151367188	-705.9779052734376	467.149627685547	-1081.58203125	-856.5925292968752	590.2517089843751	-1094.288208007813	-818.4812011718752	571.0200805664064	-1176.137329101563	-827.9057617187502	665.9192504882814	-1131.280029296875	-942.7656860351565	493.8195800781251	-1225.393676757813	-965.580017089844	493.2120361328126	-1192.248779296875	-999.2391357421877	519.3005371093751	-1158.697631835938	
879	4.39	20.47023391723633	1608.553833007813	-1062.597290039063	-130.1250762939453	1508.430297851563	-1122.09912109375	-126.8068313598633	1505.690673828125	-977.397399902344	-186.3386383056641	1399.484375	-1057.128540039063	-344.9342651367188	1133.436279296875	-1017.515441894531	-46.1450538635254	1298.098754882813	-1055.199584960938	-80.73281860351564	1366.044067382813	-1210.541015625	52.33160400390626	1323.734252929688	-1345.80419921875	88.21106719970705	1346.31982421875	-1318.81396484375	118.2991943359375	1319.174194335938	-1364.118530273438	183.6626892089844	1324.126342773438	-1369.452758789063	189.6372833251953	1250.98486328125	-1350.309692382813	491.1970520019532	1335.1982421875	-1292.237426757813	485.4675903320314	1343.097412109375	-1372.142700195313	587.8063354492189	1356.784057617188	-1312.628173828125	-65.0507278442383	1376.045288085938	-913.0276489257815	69.92785644531251	1342.35107421875	-780.1519775390627	101.1736907958985	1362.328002929688	-812.1647949218752	139.3572692871094	1338.142822265625	-770.9427490234377	206.4488372802735	1337.883544921875	-775.6878051757815	206.0451354980469	1260.885375976563	-792.6370239257815	492.2933959960939	1333.145751953125	-874.4800415039065	503.9231262207032	1345.140747070313	-795.142272949219	585.8746948242189	1355.196899414063	-876.4641723632815	-284.6339721679688	901.1373291015627	-1168.393432617188	-302.8131713867188	861.2498779296877	-899.074645996094	-411.550262451172	1059.145141601563	-1015.249389648438	-434.7207641601564	1047.403686523438	-1048.528076171875	-438.5753784179689	1032.355590820313	-994.329528808594	-281.9711608886719	753.5395507812501	-1239.784057617188	-216.9174804687501	701.5590820312501	-1232.181274414063	-175.7956695556641	726.3217163085939	-1219.854125976563	-216.5711059570313	641.7555541992189	-1222.040771484375	-130.4084930419922	520.1824340820314	-1175.992553710938	-133.910400390625	514.5739746093751	-1047.000610351563	-171.4704742431641	311.5032348632813	-1076.717163085938	-213.6093139648438	269.9464111328126	-1145.158203125	-189.0451812744141	262.4888610839844	-1105.528442382813	-229.7339782714844	200.5079956054688	-1065.53662109375	-328.1203918457032	106.3537750244141	-1104.372802734375	-395.9306640625001	83.65689849853517	-1047.824584960938	-187.06591796875	54.19283676147462	-1021.104125976563	-181.0689392089844	56.65270614624025	-1063.828491210938	-302.8252563476563	125.5976943969727	-1018.023254394531	-469.0023193359376	570.5178222656251	-889.6948242187502	-440.4962158203126	506.8330688476564	-887.1343994140627	-406.8749389648439	500.9470520019532	-887.292419433594	-480.4164123535157	443.0907592773439	-922.4346923828127	-501.0850524902345	415.1616516113282	-939.8092041015627	-461.189422607422	396.8572082519532	-1061.711181640625	-613.1197509765626	401.8164672851564	-1014.072143554688	-676.7543334960939	486.4531555175782	-998.5336914062502	-683.4734497070314	449.7554321289064	-1028.706787109375	-704.9752807617189	468.8176574707032	-1081.173217773438	-855.6104736328127	591.2554321289064	-1094.000122070313	-817.7835083007815	572.8664550781251	-1175.703979492188	-827.2947998046877	666.9010009765626	-1130.949462890625	-941.2717895507815	494.0324707031251	-1225.578491210938	-964.4107666015627	494.1246643066407	-1192.275390625	-998.2159423828127	520.0537719726564	-1158.79638671875	
880	4.395	19.6865406036377	1611.443725585938	-1062.766845703125	-130.7283782958985	1511.348266601563	-1122.282470703125	-127.4702072143555	1508.256713867188	-977.577331542969	-186.9444885253907	1401.93798828125	-1057.247802734375	-345.0028991699219	1135.571899414063	-1017.432861328125	-46.62980270385743	1300.691772460938	-1055.36279296875	-81.19479370117189	1368.50732421875	-1210.781982421875	52.2171096801758	1325.865600585938	-1345.689575195313	87.46046447753908	1348.669921875	-1318.872436523438	117.7251739501953	1321.40478515625	-1364.132690429688	183.5726318359375	1326.026977539063	-1369.126831054688	188.6598205566407	1253.419921875	-1350.3779296875	490.2420349121095	1336.987670898438	-1292.019897460938	485.270965576172	1345.072998046875	-1371.713623046875	587.2536621093751	1358.270629882813	-1312.431030273438	-65.48036956787111	1378.57763671875	-913.1419677734377	69.65631103515626	1345.039794921875	-780.1468505859377	100.7135620117188	1364.8583984375	-812.3330078125002	138.9281158447266	1340.71923828125	-770.9683227539065	206.0247650146485	1340.626586914063	-775.7985839843752	205.739242553711	1263.7392578125	-792.6480102539065	491.7415466308595	1336.0986328125	-874.4029541015627	503.7838745117189	1348.233642578125	-794.872497558594	585.4432983398439	1357.95556640625	-876.3959960937502	-284.9188842773438	902.7996215820315	-1168.353271484375	-302.5043029785157	863.373962402344	-898.9777832031252	-411.4996032714845	1061.201171875	-1015.106506347656	-434.6929931640626	1049.119140625	-1048.371337890625	-438.3428344726564	1034.325073242188	-994.1595458984377	-282.0979614257813	754.3986816406251	-1239.102416992188	-217.5122375488282	702.2750854492189	-1231.784301757813	-176.0229797363282	726.8052368164064	-1219.516723632813	-217.2332000732422	642.5331420898439	-1221.439453125	-131.4399719238282	520.7342529296876	-1175.690063476563	-135.0237426757813	515.3515014648439	-1046.81689453125	-171.8951416015625	311.9680480957032	-1076.656982421875	-214.1614074707032	270.4203491210938	-1144.9716796875	-189.4655914306641	262.8621520996094	-1105.378173828125	-229.9843292236329	200.6316986083985	-1065.440795898438	-329.2086486816407	106.6427383422852	-1104.248657226563	-395.9219665527345	83.62175750732423	-1047.760009765625	-187.0945587158203	54.09783935546876	-1021.137084960938	-181.0406799316407	56.44834518432619	-1063.73779296875	-302.8599548339844	125.6306762695313	-1017.812927246094	-468.2001342773439	572.4349365234376	-889.3741455078127	-439.5023803710939	508.6923828125001	-886.6645507812502	-405.8967285156251	502.7724609375001	-886.6547851562502	-479.2515258789064	444.910858154297	-921.7427368164065	-499.9646606445314	417.0811157226564	-939.1897583007815	-459.909149169922	398.4963684082032	-1060.729125976563	-612.0033569335939	403.3847961425782	-1013.519409179688	-675.6291503906251	488.1766052246095	-998.1162719726565	-682.4191284179689	451.2509155273439	-1028.29296875	-701.8751831054689	469.9541015625001	-1081.677856445313	-854.7960205078127	592.2651367187501	-1093.813232421875	-816.8107910156252	573.8656005859376	-1175.605346679688	-826.4360961914065	667.7499389648439	-1130.62890625	-940.107360839844	494.9370422363282	-1225.166137695313	-963.2707519531252	494.7904357910157	-1192.019165039063	-997.159362792969	520.8779296875001	-1158.816772460938	
